<svg xmlns="http://www.w3.org/2000/svg" width="880.697" height="904.346" viewBox="60.483 53.359 880.697 904.346"><defs><radialGradient id="c" r="100%" cx="119%" cy="75%"><stop offset="0%" stop-color="#38e6ef"/><stop offset="100%" stop-color="#fff"/></radialGradient><clipPath id="b"><path fill="currentColor" d="M927.5 644.5Q897 789 772 871t-273.5 86.5Q350 962 236.5 868t-154-231Q42 500 76 358.5t156-225q122-83.5 267-80t264.5 86Q883 222 920.5 361t7 283.5Z"/></clipPath><filter id="a" x="-50vw" y="-50vh" width="100vw" height="100vh"><feFlood flood-color="#fff" result="neutral-gray"/><feTurbulence type="fractalNoise" baseFrequency="2.5" numOctaves="100" stitchTiles="stitch" result="noise"/><feColorMatrix in="noise" type="saturate" values="0" result="destaturatedNoise"/><feComponentTransfer in="desaturatedNoise" result="theNoise"><feFuncA type="table" tableValues="0 0 0.05 0"/></feComponentTransfer><feBlend in="SourceGraphic" in2="theNoise" mode="soft-light" result="noisy-image"/></filter></defs><g filter="url(#a)" clip-path="url(#b)"><path fill="url(#c)" d="M927.5 644.5Q897 789 772 871t-273.5 86.5Q350 962 236.5 868t-154-231Q42 500 76 358.5t156-225q122-83.5 267-80t264.5 86Q883 222 920.5 361t7 283.5Z"/></g></svg>